<?xml version="1.0" standalone="no"?>
<!DOCTYPE svg PUBLIC "-//W3C//DTD SVG 20010904//EN"
 "http://www.w3.org/TR/2001/REC-SVG-20010904/DTD/svg10.dtd">
<svg version="1.0" xmlns="http://www.w3.org/2000/svg"
 width="512.000000pt" height="512.000000pt" viewBox="0 0 512.000000 512.000000"
 preserveAspectRatio="xMidYMid meet">

<g transform="translate(0.000000,512.000000) scale(0.100000,-0.100000)"
fill="#000000" stroke="none">
<path d="M1002 4718 c-171 -21 -367 -87 -502 -168 -344 -207 -517 -531 -497
-930 8 -151 33 -262 102 -448 4 -10 13 -9 42 4 21 8 48 20 60 24 l22 9 -6
-122 c-17 -366 168 -686 489 -847 l83 -41 -5 -72 c-12 -171 -5 -411 14 -492
73 -316 234 -568 481 -751 143 -106 289 -171 480 -214 89 -20 108 -29 170 -76
139 -105 320 -173 524 -195 249 -27 532 49 726 195 57 43 82 55 135 65 88 17
255 73 332 112 340 172 583 490 664 871 18 84 25 322 14 485 l-5 71 86 44
c199 103 342 258 425 462 49 122 68 236 61 384 -3 67 -4 122 -3 122 2 0 29
-11 59 -25 31 -13 58 -21 60 -17 10 17 68 203 82 262 22 95 30 288 16 394 -63
472 -435 813 -972 891 -324 47 -631 -24 -885 -203 -99 -70 -220 -196 -285
-296 l-54 -84 -45 6 c-57 9 -560 9 -620 1 l-45 -7 -55 85 c-30 47 -91 121
-134 165 -263 266 -623 385 -1014 336z m421 -322 c162 -48 288 -126 401 -247
36 -39 64 -75 61 -79 -3 -5 -22 -14 -43 -21 -65 -21 -224 -105 -300 -159 -164
-116 -310 -283 -401 -460 -117 -226 -233 -570 -291 -863 l-12 -58 -26 17
c-190 120 -292 299 -292 509 0 143 32 226 168 438 l81 127 -37 0 c-57 0 -333
-28 -379 -38 -50 -12 -53 -6 -53 116 -1 390 274 671 725 742 106 16 298 5 398
-24z m2752 9 c183 -38 322 -112 446 -236 71 -70 94 -102 127 -170 47 -98 72
-207 72 -316 0 -112 -6 -126 -44 -119 -69 12 -406 40 -412 34 -3 -4 35 -72 86
-152 122 -194 144 -256 145 -406 0 -95 -4 -128 -24 -188 -41 -126 -121 -231
-233 -306 l-53 -36 -7 27 c-4 16 -23 94 -42 175 -89 373 -228 709 -370 899
-143 189 -364 355 -586 439 -19 7 -39 16 -43 20 -12 10 118 145 187 194 108
77 221 126 351 152 89 17 291 12 400 -11z m-1312 -570 c168 -20 271 -46 386
-101 224 -105 380 -263 490 -495 174 -366 281 -819 298 -1264 6 -183 -7 -278
-58 -419 -84 -234 -290 -448 -520 -543 -70 -30 -282 -83 -328 -83 -11 0 -50
-27 -88 -61 -130 -118 -286 -173 -488 -172 -199 1 -354 57 -477 171 l-63 58
-120 24 c-244 47 -384 117 -536 269 -146 146 -231 307 -265 503 -39 222 12
691 116 1055 119 419 256 670 453 828 98 78 267 164 383 194 189 49 565 66
817 36z"/>
<path d="M1597 2694 c-4 -4 -7 -72 -7 -151 l0 -143 155 0 156 0 -3 148 -3 147
-146 3 c-80 1 -148 -1 -152 -4z"/>
<path d="M3227 2693 c-4 -3 -7 -71 -7 -150 l0 -143 150 0 150 0 0 150 0 150
-143 0 c-79 0 -147 -3 -150 -7z"/>
<path d="M2480 2633 c-168 -28 -321 -144 -395 -297 -62 -131 -115 -437 -117
-676 -1 -115 2 -145 21 -200 30 -86 64 -144 124 -207 63 -66 127 -108 219
-141 66 -23 88 -26 223 -26 128 -1 161 2 220 21 168 53 297 181 356 353 18 55
22 85 21 200 -2 244 -55 544 -119 680 -97 203 -336 329 -553 293z m196 -328
c24 -14 56 -44 71 -66 48 -73 101 -356 106 -564 2 -101 0 -115 -24 -160 -47
-92 -133 -135 -269 -135 -136 0 -222 43 -269 135 -24 46 -26 58 -23 164 4 198
53 469 98 548 61 106 201 142 310 78z"/>
</g>
</svg>
